<svg width="25" height="25" viewBox="0 0 25 25" fill="none" xmlns="http://www.w3.org/2000/svg">
<g clip-path="url(#clip0)">
<path d="M20.608 7.48858V7.48905L20.6089 7.48804L20.608 7.48858Z" fill="#343A40"/>
<path d="M20.608 6.86755L20.6087 6.86796L20.608 6.86755Z" fill="#343A40"/>
<path d="M18.7015 19.4135L15.1987 16.6391C14.8015 16.3232 14.3822 16.1516 13.9972 16.1516C13.6249 16.1516 13.2844 16.3119 13.027 16.658L11.8486 18.272C10.7209 17.3759 9.71753 16.4905 8.76538 15.5436C7.81079 14.5985 6.9187 13.603 6.01538 12.4838L7.64224 11.3145C8.35142 10.7947 8.28701 9.93465 7.66148 9.15965L4.8664 5.68435C4.55908 5.38127 4.15361 5.22888 3.74814 5.22888C3.35092 5.22888 2.95331 5.37493 2.64662 5.66912L0.532559 7.63987C0.272159 7.8908 0.101455 8.21307 0.0252344 8.59783C-0.3671 10.5749 3.92251 15.8302 6.19966 18.0899C8.37891 20.2522 13.3201 24.2418 15.4891 24.2418C15.5872 24.2418 15.6796 24.2336 15.7659 24.2168C16.1534 24.1412 16.478 23.9717 16.7311 23.7137L18.7171 21.6159C19.3161 21.0006 19.3061 20.0168 18.7015 19.4135ZM18.0464 20.99L16.0671 23.0809C15.9458 23.2028 15.7884 23.2812 15.5878 23.3205C15.5693 23.3241 15.5378 23.3281 15.489 23.3281C13.8354 23.3281 9.26885 19.843 6.85054 17.4436C5.86977 16.4707 4.23769 14.6476 2.86391 12.7116C0.799845 9.8033 0.909025 8.87039 0.927921 8.77313C0.967863 8.5743 1.04653 8.41883 1.16908 8.29842L3.28583 6.32493C3.40961 6.20667 3.57334 6.14168 3.74804 6.14168C3.9124 6.14168 4.06665 6.199 4.18676 6.3033L6.94316 9.73045C7.18003 10.0238 7.24624 10.264 7.23008 10.3911C7.22578 10.4235 7.21699 10.4905 7.10205 10.5747L5.47583 11.7439C5.27153 11.8906 5.13711 12.1135 5.10356 12.361C5.06972 12.6086 5.13984 12.8589 5.29717 13.054C6.22978 14.2095 7.15147 15.2352 8.11363 16.1882C9.07764 17.1471 10.1115 18.0617 11.2731 18.9845C11.4374 19.115 11.6404 19.1848 11.8484 19.1848C11.8896 19.1848 11.9307 19.1821 11.9715 19.1766C12.2209 19.1431 12.4462 19.0099 12.5938 18.8074L13.7676 17.2001C13.8606 17.0751 13.9314 17.0644 13.9968 17.0644C14.163 17.0644 14.3971 17.1717 14.6246 17.3525L18.0771 20.0863C18.3018 20.3415 18.2945 20.7345 18.0464 20.99Z" fill="#343A40"/>
<path d="M23.3126 0.758179H11.1383C10.2069 0.759985 9.45328 1.50847 9.45148 2.4323V10.6601C9.45328 11.5839 10.2072 12.3421 11.1383 12.3436L17.071 12.3366V14.8415C17.071 15.0205 17.1765 15.183 17.3409 15.257C17.5052 15.3311 17.6975 15.3028 17.8338 15.1854L21.032 12.3423L23.3126 12.3436C24.244 12.342 24.9985 11.5936 25.0001 10.6698V2.43221C24.9985 1.50847 24.244 0.759985 23.3126 0.758179ZM24.0796 10.6698C24.0796 10.879 23.9945 11.067 23.8546 11.207C23.7134 11.3463 23.5235 11.4308 23.3128 11.4308H23.311L20.8571 11.4302C20.747 11.4305 20.6397 11.4707 20.5565 11.543L17.9912 13.8372V11.8811C17.9912 11.629 17.7863 11.4249 17.5321 11.4243L11.139 11.4307H11.1384C10.9278 11.4307 10.7382 11.3462 10.5973 11.2069C10.4567 11.067 10.3717 10.8694 10.3717 10.6603V2.43221C10.3717 2.22303 10.4568 2.03499 10.5973 1.895C10.7384 1.75569 10.9278 1.67122 11.1384 1.67122H23.3129C23.5236 1.67122 23.7135 1.75569 23.8546 1.895C23.9945 2.03489 24.0796 2.22303 24.0796 2.43221C24.0796 2.43221 24.0796 10.6698 24.0796 10.6698Z" fill="#343A40"/>
<path d="M19.3576 8.98865C19.7803 8.98865 20.1229 8.64904 20.1229 8.2301C20.1229 7.81117 19.7803 7.47156 19.3576 7.47156C18.935 7.47156 18.5923 7.81117 18.5923 8.2301C18.5923 8.64904 18.935 8.98865 19.3576 8.98865Z" fill="#343A40"/>
<path d="M17.2146 8.98865C17.6372 8.98865 17.9799 8.64904 17.9799 8.2301C17.9799 7.81117 17.6372 7.47156 17.2146 7.47156C16.7919 7.47156 16.4493 7.81117 16.4493 8.2301C16.4493 8.64904 16.7919 8.98865 17.2146 8.98865Z" fill="#343A40"/>
<path d="M15.072 8.98865C15.4949 8.98865 15.8378 8.64904 15.8378 8.2301C15.8378 7.81117 15.4949 7.47156 15.072 7.47156C14.649 7.47156 14.3061 7.81117 14.3061 8.2301C14.3061 8.64904 14.649 8.98865 15.072 8.98865Z" fill="#343A40"/>
</g>
<defs>
<clipPath id="clip0">
<rect width="25" height="25" fill="white"/>
</clipPath>
</defs>
</svg>
