<svg width="44" height="44" viewBox="0 0 44 44" fill="none" xmlns="http://www.w3.org/2000/svg">
<path d="M37.8125 6.18743C32.5614 6.18743 27.5413 4.55462 23.2946 1.46637L22.4043 0.81874C22.1636 0.643428 21.8364 0.643428 21.5958 0.81874L20.7054 1.46637C16.4588 4.55462 11.4386 6.18743 6.1875 6.18743C5.80731 6.18743 5.5 6.49543 5.5 6.87493V19.8976C5.5 29.3734 11.0234 38.1376 19.5718 42.2255L21.7037 43.2451C21.7972 43.2897 21.8989 43.3124 22 43.3124C22.1011 43.3124 22.2028 43.2897 22.297 43.2451L24.4289 42.2255C32.9766 38.1376 38.5 29.3734 38.5 19.8976V6.87493C38.5 6.49543 38.1927 6.18743 37.8125 6.18743ZM37.125 19.8976C37.125 28.8467 31.9082 37.1242 23.8349 40.9846L22 41.8632L20.1651 40.9852C12.0917 37.1242 6.875 28.8467 6.875 19.8976V7.55349C12.1681 7.41668 17.2171 5.70412 21.5139 2.57805L22 2.22468L22.4861 2.57805C26.7829 5.70343 31.8319 7.41668 37.125 7.55349V19.8976Z" fill="#232324"/>
<path d="M10.3125 22C10.3125 28.4446 15.5554 33.6875 22 33.6875C28.4446 33.6875 33.6875 28.4446 33.6875 22C33.6875 15.5554 28.4446 10.3125 22 10.3125C15.5554 10.3125 10.3125 15.5554 10.3125 22ZM32.3125 22C32.3125 27.6863 27.6863 32.3125 22 32.3125C16.3137 32.3125 11.6875 27.6863 11.6875 22C11.6875 16.3137 16.3137 11.6875 22 11.6875C27.6863 11.6875 32.3125 16.3137 32.3125 22Z" fill="#232324"/>
<path d="M17.875 19.25V22H17.1875C16.8073 22 16.5 22.308 16.5 22.6875V28.1875C16.5 28.567 16.8073 28.875 17.1875 28.875H26.8125C27.1927 28.875 27.5 28.567 27.5 28.1875V22.6875C27.5 22.308 27.1927 22 26.8125 22H26.125V19.25C26.125 16.9751 24.2749 15.125 22 15.125C19.7251 15.125 17.875 16.9751 17.875 19.25ZM26.125 27.5H17.875V23.375H26.125V27.5ZM24.75 19.25V22H19.25V19.25C19.25 17.7334 20.4834 16.5 22 16.5C23.5166 16.5 24.75 17.7334 24.75 19.25Z" fill="#232324"/>
<path d="M19.25 24.75H20.625V26.125H19.25V24.75Z" fill="#232324"/>
<path d="M24.0625 24.75H25.4375V26.125H24.0625V24.75Z" fill="#232324"/>
</svg>
