<svg width="44" height="44" viewBox="0 0 44 44" fill="none" xmlns="http://www.w3.org/2000/svg">
<g clip-path="url(#clip0)">
<path d="M14.8285 33.679C14.8173 33.624 14.801 33.5699 14.7795 33.5175C14.758 33.4659 14.7314 33.4161 14.7005 33.3697C14.6695 33.3224 14.6334 33.2786 14.5939 33.239C14.5544 33.1995 14.5105 33.1634 14.4633 33.1325C14.4169 33.1015 14.367 33.0749 14.3146 33.0534C14.263 33.0319 14.2089 33.0147 14.1539 33.0044C14.043 32.9821 13.9288 32.9821 13.8188 33.0044C13.7638 33.0147 13.7096 33.0319 13.6572 33.0534C13.6056 33.0749 13.5558 33.1015 13.5094 33.1325C13.4621 33.1634 13.4183 33.1995 13.3787 33.239C13.3392 33.2786 13.3031 33.3224 13.2722 33.3697C13.2404 33.4161 13.2146 33.4659 13.1931 33.5175C13.1716 33.5699 13.1545 33.624 13.1441 33.679C13.133 33.734 13.127 33.7908 13.127 33.8466C13.127 33.9025 13.133 33.9592 13.1441 34.0142C13.1545 34.0692 13.1716 34.1233 13.1931 34.1749C13.2146 34.2273 13.2404 34.2772 13.2722 34.3236C13.3031 34.3708 13.3392 34.4147 13.3787 34.4542C13.4183 34.4937 13.4621 34.5298 13.5094 34.5608C13.5558 34.5918 13.6056 34.6184 13.6572 34.6399C13.7096 34.6614 13.7638 34.6786 13.8188 34.6889C13.8738 34.7001 13.9305 34.7061 13.9863 34.7061C14.0422 34.7061 14.0989 34.7001 14.1539 34.6889C14.2089 34.6786 14.263 34.6614 14.3146 34.6399C14.367 34.6184 14.4169 34.5917 14.4633 34.5608C14.5105 34.5298 14.5544 34.4937 14.5939 34.4542C14.6334 34.4147 14.6695 34.3708 14.7005 34.3236C14.7314 34.2772 14.758 34.2273 14.7795 34.1749C14.801 34.1233 14.8173 34.0692 14.8285 34.0142C14.8397 33.9592 14.8457 33.9025 14.8457 33.8466C14.8457 33.7908 14.8397 33.734 14.8285 33.679Z" fill="#232324"/>
<path d="M39.5307 33.9438C39.5273 33.9352 39.5239 33.9267 39.5203 33.9182C38.7293 32.0674 36.8742 31.3833 34.6789 32.1331L28.6918 33.7888C28.3456 32.7405 27.4822 31.8485 26.2614 31.3955C26.2538 31.3927 26.2463 31.3899 26.2386 31.3874L19.6574 29.1537C19.1097 28.4456 17.3938 26.6339 14.1812 26.6339C11.9361 26.6339 9.95002 28.1741 8.81375 29.8529H0.859375C0.384742 29.8529 0 30.2376 0 30.7122V41.547C0 42.0216 0.384742 42.4064 0.859375 42.4064H5.96896C6.44359 42.4064 6.82834 42.0216 6.82834 41.547V40.805H9.22453C9.69916 40.805 10.0839 40.4203 10.0839 39.9456V39.6983C11.4807 39.8202 11.9402 40.0851 13.223 40.8249C14.2096 41.3938 15.7007 42.2536 18.3859 43.4609C18.3984 43.4665 18.411 43.4718 18.4236 43.4768C18.939 43.6795 19.9464 43.998 21.1885 43.998C22.053 43.998 23.0314 43.8436 24.0357 43.3884L37.2693 38.6501C37.2928 38.6417 37.316 38.6322 37.3387 38.6218C38.6035 38.0399 40.4882 36.3999 39.5307 33.9438ZM5.10959 40.6875H1.71875V31.5715H5.10959V40.6875ZM8.36516 39.0862H6.82834V31.5715H8.36516V39.0862ZM36.652 37.0454L23.4243 41.7815C23.4127 41.7856 23.397 41.7918 23.3856 41.7965C23.374 41.8012 23.3624 41.8062 23.3509 41.8114C21.5087 42.6581 19.7575 42.1512 19.0712 41.8844C16.4775 40.7173 15.0931 39.919 14.0816 39.3357C12.6754 38.5248 11.9977 38.134 10.0839 37.9759V31.0544C10.8985 29.7192 12.4782 28.3526 14.1813 28.3526C17.102 28.3526 18.3396 30.2522 18.3882 30.3289C18.4931 30.4996 18.6545 30.6282 18.8441 30.6926L25.674 33.0106C26.7648 33.4201 27.3413 34.3542 27.0763 35.2858C26.954 35.716 26.6715 36.0728 26.2808 36.2905C25.8935 36.5062 25.4458 36.5596 25.019 36.4415L17.3196 34.0016C16.8669 33.8582 16.3841 34.1088 16.2407 34.5612C16.0973 35.0137 16.3479 35.4966 16.8004 35.6401L24.5132 38.0842C24.5213 38.0868 24.5295 38.0893 24.5377 38.0916C24.8456 38.1792 25.1591 38.2225 25.4708 38.2225C26.0412 38.2225 26.6054 38.0772 27.1174 37.7919C27.9091 37.3507 28.4817 36.6277 28.7295 35.7558C28.7493 35.6862 28.7668 35.6166 28.782 35.547L35.2345 33.7595C36.1664 33.4412 37.3897 33.3265 37.9344 34.5809C38.4981 36.0536 37.0329 36.8637 36.652 37.0454Z" fill="#232324"/>
<path d="M30.8567 11.3045C30.8455 11.2495 30.8292 11.1954 30.8069 11.143C30.7854 11.0914 30.7596 11.0416 30.7278 10.9952C30.6969 10.9479 30.6608 10.9041 30.6213 10.8645C30.5817 10.825 30.5379 10.7889 30.4906 10.758C30.4442 10.727 30.3944 10.7004 30.3428 10.6789C30.2904 10.6574 30.2362 10.6402 30.1821 10.6299C30.0712 10.6076 29.957 10.6076 29.8461 10.6299C29.7911 10.6402 29.737 10.6574 29.6854 10.6789C29.633 10.7004 29.5831 10.727 29.5367 10.758C29.4895 10.7889 29.4456 10.825 29.4061 10.8645C29.3666 10.9041 29.3305 10.9479 29.2995 10.9952C29.2686 11.0416 29.242 11.0914 29.2205 11.143C29.199 11.1954 29.1818 11.2495 29.1715 11.3045C29.1603 11.3595 29.1543 11.4162 29.1543 11.4721C29.1543 11.528 29.1603 11.5847 29.1715 11.6397C29.1818 11.6947 29.199 11.7488 29.2205 11.8004C29.242 11.8528 29.2686 11.9027 29.2995 11.9491C29.3305 11.9963 29.3666 12.0402 29.4061 12.0797C29.4456 12.1192 29.4895 12.1553 29.5367 12.1862C29.5831 12.2172 29.633 12.2438 29.6854 12.2653C29.737 12.2868 29.7911 12.3031 29.8461 12.3143C29.9011 12.3255 29.9578 12.3315 30.0137 12.3315C30.0695 12.3315 30.1262 12.3255 30.1821 12.3143C30.2362 12.3031 30.2904 12.2868 30.3428 12.2653C30.3944 12.2438 30.4442 12.2172 30.4906 12.1862C30.5379 12.1553 30.5817 12.1192 30.6213 12.0797C30.6608 12.0402 30.6969 11.9963 30.7278 11.9491C30.7596 11.9027 30.7854 11.8528 30.8069 11.8004C30.8292 11.7488 30.8455 11.6947 30.8567 11.6397C30.8679 11.5847 30.873 11.528 30.873 11.4721C30.873 11.4162 30.8679 11.3595 30.8567 11.3045Z" fill="#232324"/>
<path d="M43.1406 2.91246H38.0311C37.5564 2.91246 37.1717 3.2972 37.1717 3.77184V4.51382H34.7755C34.3009 4.51382 33.9161 4.89856 33.9161 5.3732V5.62052C32.5193 5.49858 32.0599 5.23372 30.7771 4.49397C29.7905 3.92506 28.2994 3.06526 25.6141 1.85792C25.6017 1.85225 25.5891 1.84701 25.5763 1.84202C24.7022 1.4981 22.4114 0.821431 19.9647 1.93028L16.5065 3.16847L13.5916 0.253643C13.256 -0.0819433 12.7119 -0.0819433 12.3763 0.253643L2.80648 9.82338C2.49693 10.133 2.43755 10.6699 2.80648 11.0388L19.1593 27.3916C19.4209 27.6533 20.0337 27.7325 20.3747 27.3916L29.1115 18.6548C29.3387 18.6744 29.5744 18.685 29.8187 18.685C32.0639 18.685 34.0499 17.1448 35.1861 15.4661H43.1406C43.6153 15.4661 44 15.0814 44 14.6067V3.77184C44 3.2972 43.6153 2.91246 43.1406 2.91246ZM12.9839 2.07663L14.9426 4.03532C14.3603 4.3954 13.6872 4.58807 12.9839 4.58807C12.2805 4.58807 11.6074 4.39549 11.0252 4.03532L12.9839 2.07663ZM6.58824 12.3898L4.62956 10.431L6.58824 8.47236C6.94832 9.05459 7.141 9.72773 7.141 10.431C7.141 11.1344 6.94841 11.8075 6.58824 12.3898ZM19.767 25.5685L17.8087 23.6102C19.0043 22.8723 20.5295 22.8723 21.7253 23.6102L19.767 25.5685ZM22.9635 22.3721C21.0644 20.9946 18.4696 20.9946 16.5706 22.3721L7.82635 13.6278C8.49743 12.7049 8.85975 11.5962 8.85975 10.431C8.85975 9.26582 8.49752 8.15723 7.82635 7.23426L9.78718 5.27351C10.7102 5.94459 11.8187 6.30691 12.984 6.30691C14.1492 6.30691 15.2578 5.94459 16.1808 5.27351L18.0395 7.13225C17.6384 7.19146 17.2473 7.32363 16.8826 7.52688C16.2666 7.87011 15.7833 8.3841 15.4823 9.00595C14.513 9.18547 13.6155 9.65477 12.9115 10.3587C11.0016 12.2687 11.0016 15.3765 12.9116 17.2865C13.8665 18.2415 15.121 18.719 16.3755 18.719C17.6299 18.719 18.8844 18.2416 19.8395 17.2865C20.4608 16.6652 20.8961 15.9016 21.1141 15.0694L24.0157 16.0541C23.689 17.5673 24.0236 19.1592 24.926 20.4096L22.9635 22.3721ZM17.7386 13.9234C17.7462 13.9261 17.7538 13.9289 17.7614 13.9315L19.4798 14.5147C19.35 15.1004 19.0564 15.6389 18.6241 16.0712C17.3842 17.3109 15.3668 17.3111 14.127 16.0712C12.8871 14.8314 12.8871 12.814 14.127 11.5741C14.4261 11.2749 14.779 11.041 15.1636 10.8825C15.3222 12.2026 16.2728 13.3794 17.7386 13.9234ZM26.1643 19.1712C25.8326 18.6307 25.6449 18.0137 25.6152 17.3841C26.0269 17.6817 26.53 17.9733 27.1308 18.2047L26.1643 19.1712ZM33.916 14.2641C33.1015 15.5994 31.5218 16.9661 29.8187 16.9661C29.5 16.9661 29.2014 16.9434 28.9222 16.903C28.9211 16.9028 28.92 16.9027 28.9188 16.9025C27.0629 16.6329 26.0646 15.5781 25.7355 15.1604C25.718 15.1347 25.6433 15.037 25.6323 15.0207C25.5321 14.8418 25.368 14.6979 25.1587 14.6269L18.3259 12.3078C17.2356 11.8986 16.6592 10.9649 16.9233 10.0337C16.9235 10.0331 16.9237 10.0325 16.9239 10.0319C16.9241 10.0312 16.9243 10.0304 16.9245 10.0297C17.0473 9.60089 17.3293 9.2452 17.7191 9.02803C18.1064 8.81224 18.554 8.7587 18.9809 8.87704L26.6803 11.3169C27.1329 11.4605 27.6159 11.2097 27.7592 10.7573C27.9025 10.3048 27.652 9.82184 27.1996 9.67841L21.0761 7.73794L21.0226 7.68448C21.0221 7.68397 21.0216 7.68337 21.021 7.68285L17.8508 4.51262L20.5757 3.53688C20.5849 3.53353 20.5962 3.52932 20.6053 3.52563C20.6077 3.52468 20.6121 3.52296 20.6144 3.52202C20.626 3.51729 20.6376 3.51231 20.649 3.50706C22.4912 2.66041 24.2422 3.16718 24.9286 3.4341C27.5224 4.60122 28.9069 5.39949 29.9184 5.98275C31.3247 6.79374 32.0023 7.1845 33.916 7.34254V14.2641ZM37.1717 13.7472H35.6349V6.23257H37.1717V13.7472ZM42.2813 13.7472H38.8904V4.63121H42.2813V13.7472Z" fill="#232324"/>
</g>
<defs>
<clipPath id="clip0">
<rect width="44" height="44" fill="white"/>
</clipPath>
</defs>
</svg>
