<svg width="44" height="44" viewBox="0 0 44 44" fill="none" xmlns="http://www.w3.org/2000/svg">
<path d="M30.6104 6.28945C30.5467 6.25102 30.477 6.22346 30.4042 6.2079C29.116 4.68964 27.5121 3.47066 25.7044 2.63597C23.8967 1.80128 21.9286 1.37096 19.9375 1.37503C12.3557 1.37503 6.1875 7.54319 6.1875 15.125C6.1875 22.7069 12.3557 28.875 19.9375 28.875C22.9683 28.8731 25.9139 27.8716 28.3178 26.0258C28.8661 26.3281 29.4401 26.5812 30.0332 26.782C30.0988 26.8023 30.1672 26.8127 30.2359 26.8127H30.2605C30.3292 26.8127 30.3975 26.8023 30.4632 26.782C30.5604 26.7521 32.8701 26.0238 35.1891 23.8798C37.3251 21.9049 39.8714 18.3058 39.8714 12.375C39.8714 12.2576 39.8413 12.1422 39.7841 12.0397C39.7268 11.9373 39.6443 11.8512 39.5443 11.7896L30.6104 6.28945ZM20.3804 2.75862C22.0261 2.81399 23.6439 3.19891 25.1382 3.8906C26.6325 4.58229 27.9729 5.5667 29.08 6.78557L21.3125 11.5672V8.93753C21.3125 8.77859 21.2574 8.62456 21.1567 8.50164C21.0559 8.37873 20.9157 8.29452 20.7598 8.26335L18.1645 7.74429L20.3804 2.75862ZM12.1578 24.7414L14.1625 23.2375C14.2913 23.1409 14.3821 23.0022 14.4191 22.8455C14.4561 22.6888 14.4369 22.524 14.3649 22.38L13.086 19.8221L13.4886 17.0034L13.7994 17.4696L14.458 20.1041C14.4799 20.1917 14.5189 20.2741 14.5726 20.3466C14.6264 20.4192 14.6939 20.4804 14.7713 20.5269L17.9166 22.4142L18.472 27.4127C16.1569 27.1377 13.9673 26.2114 12.1578 24.7414ZM19.9375 27.5C19.9134 27.5 19.8894 27.4993 19.8652 27.4991L19.2458 21.9241C19.2341 21.8189 19.1983 21.7178 19.1411 21.6287C19.0839 21.5396 19.007 21.465 18.9162 21.4105L15.7229 19.4945L15.1041 17.0208C15.0852 16.9443 15.0532 16.8716 15.0096 16.806L13.6346 14.7435C13.5574 14.6276 13.4468 14.538 13.3175 14.4863C13.1882 14.4347 13.0463 14.4236 12.9105 14.4543C12.7747 14.4851 12.6515 14.5564 12.5571 14.6588C12.4627 14.7612 12.4017 14.8898 12.382 15.0276L11.6945 19.8401C11.6747 19.9785 11.6977 20.1197 11.7602 20.2448L12.8785 22.4816L11.1212 23.7997C8.83928 21.4894 7.56056 18.3723 7.5625 15.125C7.5625 8.66502 12.5383 3.34618 18.8585 2.79764L16.5592 7.97108C16.5173 8.06527 16.4972 8.16768 16.5003 8.27071C16.5033 8.37375 16.5295 8.47478 16.5769 8.56632C16.6243 8.65787 16.6916 8.73759 16.774 8.79958C16.8563 8.86158 16.9516 8.90426 17.0527 8.92447L19.9375 9.50119V12.375C19.9375 12.5193 19.9829 12.66 20.0673 12.7771C20.1517 12.8941 20.2708 12.9817 20.4077 13.0273L20.6397 13.1046C20.8386 18.6021 23.2608 21.9872 25.3073 23.8797C25.8506 24.3816 26.4312 24.8417 27.044 25.2559C24.9613 26.7149 22.4804 27.4984 19.9375 27.5ZM34.3003 22.8286C33.1232 23.9333 31.7481 24.806 30.2472 25.4008C28.765 24.8157 27.406 23.9572 26.2408 22.8701C23.5094 20.3447 22.0849 16.9436 22.0037 12.7567L30.2482 7.68104L38.4927 12.7567C38.412 16.9197 37.0025 20.3065 34.3003 22.8286Z" fill="#232324"/>
<path d="M41.0896 28.8966C40.6216 28.6099 40.0872 28.4496 39.5387 28.4315C38.9902 28.4135 38.4465 28.5382 37.9607 28.7935L33.3673 31.182C33.1725 30.7661 32.8964 30.3934 32.5554 30.0858C32.2143 29.7782 31.8151 29.542 31.3814 29.3911C30.9476 29.2402 30.488 29.1776 30.0297 29.207C29.5714 29.2365 29.1236 29.3573 28.7127 29.5625L21.9322 32.953L12.5641 30.2765C12.5026 30.2589 12.4389 30.25 12.375 30.25H8.25V29.5625C8.25 29.3802 8.17757 29.2053 8.04864 29.0764C7.9197 28.9474 7.74484 28.875 7.5625 28.875H2.0625C1.88016 28.875 1.7053 28.9474 1.57636 29.0764C1.44743 29.2053 1.375 29.3802 1.375 29.5625V39.1875C1.375 39.3699 1.44743 39.5447 1.57636 39.6737C1.7053 39.8026 1.88016 39.875 2.0625 39.875H7.5625C7.74484 39.875 7.9197 39.8026 8.04864 39.6737C8.17757 39.5447 8.25 39.3699 8.25 39.1875V38.7024L23.2014 42.6028C23.3724 42.6473 23.554 42.6243 23.7084 42.5385L42.2709 32.226C42.3782 32.1665 42.4676 32.0794 42.5298 31.9737C42.5921 31.8681 42.625 31.7477 42.625 31.625C42.6273 31.0762 42.487 30.5362 42.2178 30.0579C41.9486 29.5796 41.5599 29.1795 41.0896 28.8966ZM6.875 38.5H2.75V30.25H6.875V38.5ZM23.2819 41.2028L8.25 37.2814V31.625H12.2788L21.8109 34.3486C21.9763 34.3958 22.1535 34.3794 22.3073 34.3024L29.3275 30.7924C29.6017 30.6517 29.9044 30.5756 30.2125 30.57C30.5206 30.5644 30.8259 30.6294 31.1051 30.76C31.5712 30.9708 31.9421 31.3477 32.1456 31.817L24.4329 35.8274C24.2711 35.9115 24.1493 36.0564 24.0943 36.2303C24.0394 36.4042 24.0557 36.5928 24.1398 36.7546C24.2239 36.9165 24.3689 37.0382 24.5428 37.0932C24.7167 37.1482 24.9053 37.1318 25.0671 37.0477L38.5945 30.013C38.8426 29.8841 39.1171 29.8142 39.3967 29.8087C39.6762 29.8031 39.9532 29.8621 40.2063 29.9811C40.4593 30.1 40.6814 30.2757 40.8555 30.4945C41.0296 30.7133 41.1508 30.9693 41.2099 31.2426L23.2819 41.2028Z" fill="#232324"/>
<path d="M29.8882 9.5176L23.7689 13.2848C23.6599 13.352 23.5717 13.4483 23.5144 13.5629C23.4572 13.6775 23.433 13.8058 23.4448 13.9333C23.7356 17.0939 24.9335 19.7075 27.0052 21.7012C27.8712 22.5323 28.8582 23.2272 29.9326 23.7625C30.0272 23.8093 30.1314 23.8337 30.237 23.8338C30.3426 23.8339 30.4469 23.8097 30.5416 23.763C31.6205 23.2278 32.6121 22.5322 33.4826 21.6998C35.5623 19.7052 36.7645 17.0904 37.0555 13.928C37.0673 13.8005 37.0431 13.6722 36.9859 13.5576C36.9286 13.4431 36.8405 13.3468 36.7314 13.2796C35.2503 12.3674 32.779 10.8493 30.6083 9.51708C30.5 9.45059 30.3753 9.41544 30.2482 9.41553C30.1211 9.41562 29.9965 9.45095 29.8882 9.5176ZM35.6412 14.2228C35.318 16.8566 34.2729 19.0366 32.5309 20.7072C31.845 21.3628 31.0739 21.923 30.2383 22.3725C29.4071 21.9234 28.6403 21.3643 27.9587 20.7102C26.2234 19.0402 25.1818 16.8611 24.8592 14.2281L30.2492 10.9098C32.1535 12.079 34.2302 13.3548 35.6412 14.2228Z" fill="#232324"/>
<path d="M27.7014 17.6737L29.0764 19.0487C29.1402 19.1125 29.216 19.1632 29.2994 19.1977C29.3828 19.2323 29.4722 19.25 29.5625 19.25C29.6528 19.25 29.7422 19.2323 29.8256 19.1977C29.909 19.1632 29.9848 19.1125 30.0487 19.0487L33.4862 15.6112C33.6151 15.4822 33.6875 15.3074 33.6875 15.125C33.6875 14.9427 33.6151 14.7678 33.4862 14.6389C33.3572 14.5099 33.1824 14.4375 33 14.4375C32.8177 14.4375 32.6428 14.5099 32.5139 14.6389L29.5625 17.5903L28.6737 16.7014C28.6098 16.6375 28.534 16.5869 28.4506 16.5523C28.3672 16.5178 28.2778 16.5 28.1875 16.5C28.0972 16.5 28.0078 16.5178 27.9244 16.5523C27.841 16.5869 27.7652 16.6375 27.7014 16.7014C27.6375 16.7652 27.5869 16.841 27.5523 16.9244C27.5178 17.0078 27.5 17.0972 27.5 17.1875C27.5 17.2778 27.5178 17.3672 27.5523 17.4506C27.5869 17.534 27.6375 17.6098 27.7014 17.6737Z" fill="#232324"/>
</svg>
